<svg width="800" height="800" viewBox="0 0 800 800" fill="none" xmlns="http://www.w3.org/2000/svg">
<path fill-rule="evenodd" clip-rule="evenodd" d="M400 66.6667C215.905 66.6667 66.6667 215.905 66.6667 400C66.6667 584.093 215.905 733.333 400 733.333C584.093 733.333 733.333 584.093 733.333 400C733.333 215.905 584.093 66.6667 400 66.6667ZM374.247 285.635L307.079 339.123C278.898 361.563 264.808 372.787 267.558 385.313L267.705 385.933C270.838 398.383 288.699 403.17 324.42 412.743C344.27 418.06 354.197 420.72 358.853 428.243L359.09 428.64C363.583 436.253 361.027 445.79 355.917 464.863L354.58 469.847C340.41 522.727 333.326 549.163 346.97 557.703C360.613 566.24 382.323 548.953 425.743 514.38L492.91 460.89C521.09 438.45 535.18 427.23 532.43 414.7L532.287 414.08C529.15 401.63 511.29 396.843 475.57 387.273C455.72 381.953 445.793 379.293 441.137 371.77L440.9 371.373C436.407 363.76 438.963 354.223 444.073 335.153L445.41 330.167C459.577 277.288 466.663 250.849 453.017 242.31C439.373 233.772 417.663 251.06 374.247 285.635Z" fill="url(#paint0_linear_9_5)"/>
<defs>
<linearGradient id="paint0_linear_9_5" x1="67" y1="733" x2="733" y2="67" gradientUnits="userSpaceOnUse">
<stop stop-color="#3D7AF5"/>
<stop offset="1" stop-color="#55DFF7"/>
</linearGradient>
</defs>
</svg>
